<svg width="269" height="269" viewBox="0 0 269 269" fill="none" xmlns="http://www.w3.org/2000/svg">
<circle cx="134.5" cy="134.5" r="134.5" fill="#161515"/>
<circle cx="134.5" cy="134.5" r="126.5" fill="#222020"/>
<circle cx="134.5" cy="134.5" r="52.5" fill="#161515"/>
<circle cx="134.5" cy="134.5" r="92" stroke="#161515"/>
<circle cx="134.5" cy="134.5" r="74" stroke="#161515"/>
<path d="M134.5 87C108.267 87 87 108.267 87 134.5C87 160.735 108.267 182 134.5 182C160.735 182 182 160.735 182 134.5C182 108.269 160.735 87.0023 134.499 87.0023L134.5 87ZM156.283 155.509C155.432 156.904 153.606 157.347 152.21 156.49C141.058 149.678 127.018 148.135 110.484 151.913C108.891 152.276 107.303 151.278 106.94 149.684C106.575 148.09 107.569 146.502 109.166 146.139C127.26 142.005 142.781 143.785 155.302 151.436C156.697 152.293 157.139 154.114 156.283 155.509ZM162.097 142.575C161.025 144.318 158.744 144.868 157.003 143.796C144.235 135.948 124.773 133.675 109.671 138.259C107.712 138.851 105.644 137.747 105.049 135.792C104.459 133.833 105.564 131.769 107.519 131.173C124.769 125.939 146.215 128.474 160.877 137.484C162.618 138.556 163.169 140.836 162.097 142.575ZM162.596 129.107C147.287 120.014 122.029 119.178 107.413 123.614C105.066 124.326 102.583 123.001 101.872 120.654C101.161 118.306 102.485 115.825 104.834 115.112C121.612 110.018 149.505 111.002 167.13 121.466C169.246 122.719 169.938 125.445 168.684 127.554C167.436 129.665 164.702 130.361 162.598 129.107H162.596Z" fill="#1ED760"/>
<circle cx="134.5" cy="134.5" r="109" stroke="#161515"/>
<path d="M17.9549 143.519L31.3813 142.056C31.5431 142.038 31.685 142.078 31.807 142.176C31.9297 142.281 31.9999 142.414 32.0175 142.576L32.136 143.663C32.1537 143.825 32.1135 143.967 32.0154 144.089C31.9181 144.217 31.7885 144.29 31.6267 144.308L20.4527 145.526C20.2909 145.543 20.1577 145.613 20.0532 145.736C19.9552 145.858 19.915 146 19.9326 146.162L20.286 149.404C20.3036 149.566 20.2634 149.708 20.1654 149.83C20.0674 149.952 19.9374 150.022 19.7756 150.04L18.6786 150.159C18.5168 150.177 18.3749 150.137 18.2529 150.039C18.1309 149.941 18.061 149.811 18.0434 149.649L17.4456 144.164C17.428 144.002 17.4678 143.857 17.5652 143.728C17.6632 143.606 17.7931 143.536 17.9549 143.519ZM18.9392 152.103L32.2769 149.978C32.4377 149.953 32.5814 149.986 32.7081 150.078C32.8358 150.176 32.9125 150.306 32.9381 150.466L33.1101 151.547C33.1357 151.707 33.1026 151.851 33.0107 151.978C32.9198 152.111 32.794 152.19 32.6333 152.216L19.2955 154.34C19.1348 154.366 18.9905 154.329 18.8628 154.231C18.7361 154.139 18.66 154.013 18.6344 153.852L18.4623 152.772C18.4367 152.611 18.4694 152.464 18.5602 152.331C18.6521 152.204 18.7784 152.128 18.9392 152.103ZM22.6158 155.623L23.0452 155.53C23.1661 155.504 23.2769 155.523 23.3775 155.588C23.4782 155.652 23.5416 155.745 23.5678 155.866L23.8576 157.202C23.8838 157.323 23.8652 157.437 23.8018 157.544C23.7384 157.651 23.6463 157.718 23.5254 157.744L22.9528 157.868C22.0429 158.065 21.6742 158.562 21.8467 159.357C22.022 160.165 22.5645 160.471 23.4743 160.273C23.9897 160.161 24.4383 159.911 24.8202 159.522C25.2099 159.137 25.6351 158.502 26.0958 157.616C26.6778 156.491 27.2557 155.669 27.8297 155.152C28.4099 154.633 29.1073 154.285 29.9217 154.109C31.0479 153.864 31.976 153.966 32.706 154.414C33.4437 154.867 33.9347 155.656 34.1789 156.783C34.4204 157.896 34.2985 158.809 33.8132 159.52C33.3357 160.236 32.5339 160.717 31.4077 160.961C31.2805 160.989 31.1627 160.967 31.0543 160.898C30.9473 160.834 30.88 160.739 30.8524 160.612L30.5688 159.304C30.5412 159.177 30.5623 159.059 30.6321 158.951C30.7032 158.849 30.8024 158.784 30.9296 158.756L31.0632 158.727C31.5468 158.623 31.8754 158.448 32.0489 158.204C32.2302 157.965 32.2795 157.654 32.1967 157.272C32.027 156.49 31.4808 156.199 30.5582 156.399C30.0429 156.51 29.5904 156.758 29.2007 157.143C28.8188 157.532 28.3975 158.17 27.9368 159.056C27.3498 160.189 26.7687 161.011 26.1934 161.522C25.6258 162.038 24.9348 162.385 24.1204 162.561C22.9879 162.807 22.0521 162.7 21.3129 162.241C20.5816 161.787 20.0938 160.996 19.8495 159.87C19.6026 158.731 19.7171 157.8 20.1932 157.078C20.6757 156.353 21.4832 155.869 22.6158 155.623ZM33.3897 160.89L34.4455 160.569C34.6012 160.521 34.7481 160.534 34.8862 160.608C35.0262 160.688 35.1199 160.806 35.1672 160.962L37.2277 167.735C37.277 167.897 37.2648 168.047 37.1911 168.185C37.1193 168.33 37.0056 168.425 36.8499 168.473L35.7941 168.794C35.6384 168.841 35.4905 168.825 35.3505 168.745C35.2124 168.671 35.1188 168.554 35.0695 168.392L34.538 166.645C34.4907 166.489 34.3948 166.375 34.2505 166.303C34.1124 166.23 33.9655 166.217 33.8098 166.264L23.0561 169.535C22.9004 169.582 22.7525 169.566 22.6125 169.486C22.4744 169.413 22.3807 169.295 22.3315 169.133L22.016 168.096C21.9686 167.94 21.9818 167.793 22.0555 167.655C22.1292 167.517 22.2439 167.424 22.3996 167.377L33.1533 164.106C33.309 164.058 33.4227 163.962 33.4945 163.818C33.5744 163.678 33.5907 163.53 33.5433 163.375L33.009 161.618C32.9617 161.462 32.9739 161.312 33.0456 161.168C33.1193 161.03 33.234 160.937 33.3897 160.89ZM24.5688 174.233L37.1228 169.253C37.2741 169.193 37.4216 169.194 37.5653 169.256C37.7114 169.324 37.8144 169.433 37.8744 169.585L40.1 175.195C40.16 175.346 40.159 175.493 40.0969 175.637C40.0373 175.787 39.9318 175.892 39.7805 175.952L38.7547 176.359C38.6035 176.419 38.4548 176.415 38.3087 176.346C38.165 176.284 38.0631 176.178 38.0031 176.026L36.6094 172.513C36.5494 172.362 36.4445 172.257 36.2948 172.197C36.1511 172.135 36.0036 172.134 35.8523 172.194L34.7358 172.637C34.5845 172.697 34.4778 172.799 34.4158 172.942C34.3537 173.086 34.3527 173.234 34.4127 173.385L35.3346 175.709C35.397 175.866 35.3984 176.02 35.3388 176.169C35.2791 176.319 35.1736 176.424 35.0223 176.484L34.0148 176.884C33.8635 176.944 33.7117 176.941 33.5596 176.875C33.4075 176.81 33.3002 176.698 33.2378 176.541L32.3158 174.217C32.2558 174.066 32.1509 173.96 32.0012 173.9C31.8575 173.838 31.71 173.837 31.5587 173.897L27.5102 175.503C27.3589 175.563 27.2492 175.667 27.1811 175.813C27.1191 175.956 27.118 176.104 27.1781 176.255L28.5717 179.768C28.6317 179.919 28.6307 180.067 28.5687 180.211C28.509 180.36 28.4035 180.465 28.2522 180.525L27.2265 180.932C27.0752 180.992 26.9265 180.988 26.7804 180.92C26.6367 180.858 26.5349 180.751 26.4749 180.6L24.2493 174.99C24.1893 174.839 24.1891 174.688 24.2488 174.539C24.3108 174.395 24.4175 174.293 24.5688 174.233ZM28.019 182.698L40.085 176.63C40.2305 176.557 40.3775 176.545 40.5261 176.594C40.6776 176.649 40.7899 176.749 40.863 176.894L41.5519 178.264C41.6016 178.363 41.6193 178.471 41.605 178.587C41.5937 178.71 41.5531 178.81 41.4834 178.889L35.6352 186.301C35.5655 186.379 35.5701 186.475 35.6489 186.589C35.7132 186.673 35.8006 186.687 35.9111 186.632L43.2572 182.938C43.3967 182.868 43.5423 182.86 43.6938 182.915C43.8541 182.973 43.9708 183.074 44.0439 183.22L44.5265 184.179C44.5997 184.325 44.6116 184.472 44.5625 184.62C44.5163 184.775 44.4204 184.889 44.275 184.962L32.209 191.03C32.0694 191.1 31.9253 191.11 31.7767 191.061C31.6193 191.009 31.5041 190.91 31.431 190.765L30.7421 189.395C30.6368 189.186 30.6597 188.978 30.8106 188.771L36.6588 181.359C36.7373 181.268 36.7385 181.177 36.6626 181.084C36.5925 180.988 36.4993 180.969 36.3829 181.028L29.0369 184.722C28.8915 184.795 28.743 184.804 28.5915 184.749C28.4399 184.694 28.3261 184.591 28.2501 184.44L27.7675 183.48C27.6944 183.335 27.6809 183.185 27.7271 183.03C27.7763 182.882 27.8736 182.771 28.019 182.698ZM46.4772 190.781L47.3859 190.155C47.52 190.062 47.664 190.03 47.8179 190.059C47.9755 190.092 48.1005 190.176 48.1928 190.31L52.2097 196.141C52.3057 196.28 52.3395 196.427 52.3112 196.58C52.2865 196.74 52.2072 196.866 52.0732 196.958L51.1644 197.584C51.0304 197.676 50.8846 197.706 50.727 197.672C50.573 197.644 50.448 197.56 50.352 197.42L49.3159 195.917C49.2236 195.782 49.0978 195.703 48.9385 195.679C48.7846 195.65 48.6406 195.682 48.5066 195.774L39.2504 202.152C39.1164 202.244 38.9706 202.273 38.8129 202.24C38.659 202.211 38.534 202.127 38.438 201.988L37.823 201.095C37.7307 200.961 37.6987 200.817 37.727 200.663C37.7554 200.509 37.8365 200.386 37.9706 200.294L47.2267 193.917C47.3607 193.824 47.4401 193.699 47.4647 193.539C47.4984 193.382 47.4691 193.236 47.3768 193.102L46.3352 191.59C46.2428 191.456 46.209 191.309 46.2337 191.15C46.262 190.996 46.3432 190.873 46.4772 190.781ZM46.7184 200.988C48.2819 199.671 49.8272 198.918 51.3542 198.73C53.1901 198.495 54.71 199.091 55.9137 200.521C57.1132 201.945 57.4409 203.541 56.8967 205.311C56.4518 206.783 55.4476 208.178 53.884 209.495C52.3354 210.8 50.7901 211.552 49.2482 211.753C47.4088 211.974 45.8936 211.378 44.7025 209.964C43.5071 208.544 43.1749 206.947 43.7057 205.172C44.1656 203.687 45.1698 202.292 46.7184 200.988ZM48.6984 202.308C48.5158 202.445 48.3423 202.582 48.1779 202.721C48.0136 202.859 47.8485 203.007 47.6826 203.163C47.5217 203.316 47.3236 203.525 47.0882 203.792C46.8621 204.059 46.6592 204.323 46.4797 204.585C46.3094 204.848 46.1543 205.149 46.0143 205.488C45.8744 205.827 45.7861 206.157 45.7494 206.477C45.7178 206.793 45.7558 207.131 45.8636 207.492C45.9713 207.852 46.1594 208.192 46.4278 208.51C46.6963 208.829 46.9989 209.072 47.3357 209.239C47.6725 209.407 47.9994 209.502 48.3162 209.524C48.6381 209.543 48.978 209.512 49.3361 209.432C49.6941 209.351 50.0149 209.247 50.2985 209.119C50.5912 208.991 50.8863 208.837 51.1838 208.654C51.4904 208.472 51.7326 208.315 51.9103 208.183C52.0929 208.046 52.2664 207.908 52.4308 207.77C52.5951 207.631 52.7602 207.484 52.9261 207.327C53.092 207.17 53.288 206.958 53.5142 206.691C53.7495 206.425 53.9548 206.158 54.1301 205.892C54.3097 205.63 54.4669 205.331 54.6018 204.996C54.7418 204.657 54.8276 204.329 54.8592 204.013C54.8959 203.693 54.8604 203.353 54.7526 202.992C54.6448 202.632 54.4567 202.292 54.1883 201.974C53.9199 201.655 53.6173 201.412 53.2805 201.245C52.9436 201.077 52.6143 200.984 52.2925 200.966C51.9756 200.943 51.6381 200.972 51.2801 201.053C50.9271 201.129 50.6042 201.23 50.3114 201.358C50.0229 201.49 49.7253 201.647 49.4186 201.829C49.1212 202.011 48.8811 202.171 48.6984 202.308ZM54.2675 219.463L63.156 209.294C63.2631 209.171 63.3948 209.105 63.5509 209.094C63.712 209.088 63.8538 209.139 63.9763 209.246L66.4615 211.418C67.0056 211.894 67.3988 212.423 67.641 213.007C67.8881 213.595 67.9843 214.167 67.9294 214.725C67.8789 215.277 67.7282 215.815 67.4773 216.34C67.2987 216.702 67.079 217.038 66.8182 217.346C66.7068 217.474 66.5838 217.599 66.4491 217.724C66.0145 218.122 65.5363 218.422 65.0146 218.623C64.8793 218.669 64.7764 218.752 64.7061 218.872C64.6449 218.992 64.6303 219.117 64.6622 219.249C64.7402 219.723 64.7309 220.204 64.6344 220.69C64.5287 221.177 64.351 221.623 64.1014 222.027C63.9349 222.297 63.7467 222.552 63.5368 222.792C63.4296 222.914 63.3176 223.033 63.2007 223.147C62.85 223.489 62.4502 223.753 62.0013 223.94C61.5525 224.127 61.092 224.243 60.6198 224.289C60.1476 224.334 59.6515 224.264 59.1315 224.077C58.6163 223.895 58.1283 223.603 57.6676 223.2L54.3295 220.282C54.2069 220.175 54.138 220.041 54.1226 219.881C54.1121 219.725 54.1604 219.585 54.2675 219.463ZM57.4644 219.248C57.3573 219.37 57.3068 219.512 57.313 219.673C57.3235 219.829 57.39 219.961 57.5126 220.068L59.189 221.534C59.4488 221.761 59.7263 221.908 60.0215 221.976C60.3259 222.043 60.6046 222.036 60.8575 221.954C61.1196 221.872 61.3672 221.747 61.6005 221.579C61.7193 221.493 61.8282 221.398 61.9274 221.294C62.0174 221.191 62.0951 221.078 62.1606 220.953C62.2958 220.7 62.3845 220.44 62.4266 220.174C62.4779 219.908 62.4478 219.631 62.3361 219.343C62.2288 219.05 62.0453 218.79 61.7855 218.563L60.1091 217.098C59.9865 216.991 59.845 216.945 59.6846 216.96C59.5284 216.971 59.3967 217.037 59.2896 217.16L57.4644 219.248ZM61.5455 214.579C61.4384 214.702 61.3879 214.843 61.3941 215.004C61.4046 215.161 61.4711 215.292 61.5937 215.399L62.4098 216.113C62.6696 216.34 62.9471 216.487 63.2424 216.555C63.5468 216.622 63.8279 216.617 64.0857 216.54C64.3478 216.458 64.5955 216.333 64.8287 216.165C64.9475 216.078 65.054 215.981 65.1483 215.873C65.2333 215.766 65.3111 215.653 65.3814 215.532C65.5167 215.279 65.6078 215.021 65.6548 214.76C65.7061 214.493 65.676 214.216 65.5644 213.928C65.457 213.636 65.271 213.374 65.0063 213.142L64.1902 212.429C64.0676 212.322 63.9261 212.276 63.7657 212.291C63.6095 212.302 63.4779 212.368 63.3708 212.491L61.5455 214.579ZM62.6905 226.708L70.6159 215.772C70.7115 215.64 70.8365 215.562 70.9911 215.537C71.1509 215.516 71.2967 215.554 71.4285 215.649L74.1012 217.586C74.5388 217.903 74.8874 218.277 75.147 218.706C75.412 219.139 75.5743 219.586 75.6339 220.048C75.7027 220.508 75.6975 220.986 75.6184 221.484C75.5446 221.985 75.4046 222.467 75.1986 222.928C75.0026 223.365 74.7595 223.784 74.4691 224.185C74.4462 224.216 74.4271 224.243 74.4118 224.264C74.0933 224.692 73.7433 225.07 73.3619 225.396C72.9857 225.727 72.5683 226.003 72.1096 226.225C71.6601 226.446 71.2065 226.584 70.749 226.638C70.5748 226.657 70.4419 226.729 70.3502 226.856C70.3082 226.914 70.2767 226.98 70.2558 227.053L69.0973 231.098C69.0445 231.293 68.9209 231.424 68.7267 231.492C68.5363 231.556 68.3568 231.526 68.1881 231.404L67.2629 230.733C67.0362 230.569 66.9605 230.357 67.0357 230.098L68.0907 226.412C68.1673 226.162 68.0897 225.953 67.8577 225.785L67.2093 225.315C67.0775 225.22 66.9343 225.184 66.7798 225.209C66.6252 225.234 66.5002 225.312 66.4047 225.444L64.525 228.037C64.4295 228.169 64.3018 228.246 64.142 228.266C63.9874 228.291 63.8443 228.256 63.7125 228.16L62.8268 227.518C62.6951 227.423 62.6142 227.296 62.5842 227.137C62.5596 226.983 62.595 226.84 62.6905 226.708ZM68.4104 222.676C68.3149 222.808 68.2795 222.951 68.3041 223.106C68.3288 223.26 68.407 223.385 68.5388 223.481L69.4165 224.117C69.6959 224.319 70.0048 224.415 70.3432 224.403C70.6907 224.389 71.0218 224.287 71.3364 224.097C71.6549 223.902 71.9608 223.657 72.2542 223.363C72.4028 223.214 72.5401 223.052 72.6662 222.878C72.7794 222.711 72.8827 222.54 72.9762 222.367C73.1642 221.997 73.3022 221.634 73.3901 221.28C73.4819 220.92 73.4782 220.576 73.3791 220.247C73.2837 219.912 73.0937 219.642 72.8091 219.436L71.9313 218.8C71.7995 218.704 71.6545 218.671 71.4961 218.701C71.3415 218.726 71.2165 218.804 71.121 218.936L68.4104 222.676ZM70.8375 232.515L77.8508 220.973C77.9353 220.834 78.0536 220.745 78.2056 220.708C78.3633 220.675 78.5116 220.7 78.6507 220.784L83.8084 223.918C83.9475 224.003 84.0356 224.121 84.0727 224.273C84.1154 224.429 84.0945 224.576 84.01 224.715L83.4369 225.658C83.3524 225.797 83.2313 225.884 83.0737 225.917C82.9217 225.954 82.7761 225.931 82.637 225.846L79.4072 223.884C79.2681 223.799 79.1208 223.778 78.9654 223.821C78.8133 223.858 78.695 223.946 78.6105 224.085L77.9868 225.112C77.9023 225.251 77.8786 225.397 77.9157 225.549C77.9528 225.701 78.0409 225.819 78.18 225.903L80.3165 227.202C80.4612 227.29 80.5548 227.411 80.5975 227.567C80.6402 227.722 80.6193 227.869 80.5347 228.008L79.9719 228.935C79.8873 229.074 79.7646 229.163 79.6036 229.202C79.4426 229.242 79.2897 229.217 79.1451 229.13L77.0086 227.831C76.8695 227.747 76.7222 227.726 76.5668 227.769C76.4147 227.806 76.2964 227.894 76.2119 228.033L73.9502 231.755C73.8657 231.894 73.8403 232.043 73.874 232.2C73.9111 232.352 73.9992 232.47 74.1383 232.555L77.3682 234.518C77.5072 234.602 77.5954 234.72 77.6325 234.872C77.6751 235.028 77.6542 235.175 77.5697 235.314L76.9967 236.257C76.9122 236.396 76.7911 236.483 76.6335 236.516C76.4814 236.554 76.3358 236.53 76.1967 236.445L71.0391 233.311C70.9 233.227 70.8091 233.107 70.7664 232.952C70.7293 232.799 70.753 232.654 70.8375 232.515ZM78.8015 237.054C82.3637 233 85.4263 229.499 87.9894 226.551C88.0701 226.445 88.1744 226.38 88.3024 226.356C88.439 226.329 88.5687 226.345 88.6914 226.406L89.9803 227.038C90.0972 227.095 90.1838 227.185 90.24 227.307C90.305 227.425 90.3205 227.549 90.2865 227.677C89.6444 230.923 89.1356 233.505 88.76 235.424C88.3873 237.337 88.1603 238.494 88.0789 238.897C88.0062 239.296 87.9363 239.668 87.869 240.012C87.8017 240.356 87.7135 240.81 87.6042 241.372C87.593 241.425 87.5759 241.474 87.5529 241.521C87.4956 241.638 87.4089 241.726 87.2929 241.785C87.1189 241.874 86.9471 241.877 86.7776 241.794L85.7518 241.29C85.6349 241.233 85.5469 241.146 85.4878 241.03C85.4374 240.911 85.4233 240.785 85.4456 240.651C85.4623 240.557 85.5057 240.321 85.5756 239.942C85.6513 239.566 85.7229 239.213 85.7903 238.884C85.8433 238.583 85.7354 238.367 85.4665 238.235L82.5907 236.825C82.3219 236.693 82.0849 236.74 81.8799 236.965C81.5597 237.352 81.1671 237.805 80.7023 238.324C80.6099 238.424 80.4983 238.489 80.3675 238.519C80.2454 238.546 80.1259 238.531 80.009 238.473L78.9832 237.97C78.8137 237.887 78.7107 237.749 78.6743 237.558C78.6471 237.421 78.6607 237.297 78.7152 237.186C78.7381 237.139 78.7669 237.095 78.8015 237.054ZM84.2179 234.284C84.1833 234.325 84.1545 234.368 84.1316 234.415C84.0742 234.532 84.0606 234.656 84.0907 234.787C84.13 234.973 84.2344 235.107 84.4039 235.191L85.6577 235.806C85.8213 235.886 85.9887 235.885 86.1599 235.802C86.2759 235.743 86.3655 235.656 86.4287 235.542C86.4516 235.495 86.4687 235.446 86.48 235.393C86.6371 234.615 86.8066 233.744 86.9886 232.782C87.0338 232.601 86.9962 232.441 86.8758 232.302C86.817 232.23 86.7482 232.178 86.6693 232.147C86.5992 232.112 86.5189 232.091 86.4286 232.083C86.2509 232.076 86.1015 232.144 85.9803 232.287C85.8013 232.49 85.5141 232.816 85.1186 233.268C84.7261 233.713 84.4258 234.052 84.2179 234.284ZM89.3422 242.283L94.0661 229.672C94.1255 229.513 94.2295 229.403 94.378 229.34C94.5289 229.272 94.6836 229.267 94.8421 229.327L95.8298 229.696C95.9883 229.756 96.1018 229.861 96.1705 230.012C96.2414 230.157 96.2472 230.308 96.1878 230.467L94.4407 235.131C94.4088 235.216 94.4259 235.282 94.4922 235.327C94.5563 235.379 94.6222 235.379 94.69 235.328L100.338 231.636C100.521 231.537 100.698 231.52 100.869 231.584L102.131 232.057C102.356 232.141 102.48 232.302 102.502 232.54C102.513 232.641 102.502 232.735 102.47 232.82C102.429 232.93 102.35 233.022 102.232 233.096L95.9502 237.198C95.8489 237.264 95.7743 237.361 95.7263 237.489C95.6806 237.611 95.6742 237.731 95.707 237.847L97.7476 245.067C97.788 245.2 97.7877 245.321 97.7466 245.431C97.7146 245.517 97.6613 245.594 97.5866 245.663C97.4137 245.828 97.2145 245.868 96.9889 245.783L95.7269 245.311C95.544 245.242 95.4232 245.11 95.3644 244.914L93.6706 238.941C93.6401 238.874 93.6066 238.833 93.57 238.819C93.5212 238.801 93.4755 238.812 93.4328 238.851L92.9586 239.143C92.9419 239.151 92.9232 239.182 92.9026 239.237L91.4639 243.078C91.4045 243.236 91.2994 243.35 91.1486 243.419C91 243.481 90.8465 243.483 90.6879 243.423L89.7003 243.053C89.5418 242.994 89.427 242.892 89.3561 242.747C89.2875 242.596 89.2829 242.442 89.3422 242.283ZM105.392 247.519C107.857 242.719 109.972 238.576 111.738 235.091C111.791 234.969 111.876 234.881 111.994 234.826C112.12 234.766 112.25 234.751 112.384 234.779L113.788 235.078C113.915 235.105 114.021 235.17 114.106 235.275C114.198 235.374 114.243 235.49 114.241 235.623C114.411 238.927 114.547 241.555 114.651 243.508C114.757 245.454 114.819 246.632 114.838 247.042C114.865 247.447 114.888 247.825 114.907 248.175C114.926 248.525 114.951 248.986 114.982 249.559C114.984 249.612 114.98 249.664 114.969 249.715C114.942 249.843 114.879 249.949 114.781 250.035C114.634 250.163 114.468 250.208 114.283 250.169L113.166 249.931C113.038 249.904 112.932 249.841 112.846 249.743C112.768 249.64 112.724 249.521 112.713 249.386C112.706 249.291 112.691 249.051 112.666 248.667C112.648 248.283 112.631 247.924 112.616 247.588C112.594 247.284 112.436 247.1 112.144 247.038L109.01 246.372C108.718 246.31 108.499 246.413 108.355 246.682C108.139 247.135 107.869 247.67 107.545 248.287C107.48 248.406 107.387 248.496 107.268 248.557C107.156 248.613 107.037 248.628 106.909 248.601L105.792 248.363C105.607 248.324 105.474 248.216 105.391 248.039C105.332 247.913 105.315 247.789 105.34 247.668C105.351 247.617 105.368 247.568 105.392 247.519ZM109.968 243.511C109.945 243.559 109.928 243.608 109.917 243.659C109.89 243.787 109.907 243.91 109.968 244.03C110.051 244.2 110.185 244.305 110.37 244.345L111.736 244.635C111.914 244.673 112.076 244.631 112.222 244.509C112.32 244.423 112.386 244.317 112.419 244.191C112.43 244.14 112.435 244.088 112.433 244.034C112.395 243.241 112.347 242.356 112.289 241.378C112.288 241.192 112.213 241.046 112.062 240.941C111.988 240.885 111.908 240.851 111.824 240.84C111.748 240.824 111.665 240.823 111.575 240.837C111.401 240.873 111.273 240.976 111.19 241.145C111.066 241.384 110.867 241.771 110.594 242.306C110.322 242.834 110.113 243.235 109.968 243.511ZM118.231 236.753C118.223 236.7 118.222 236.647 118.227 236.595C118.24 236.459 118.301 236.341 118.409 236.241C118.527 236.109 118.687 236.053 118.888 236.073L119.956 236.18C120.099 236.194 120.221 236.252 120.322 236.354C120.423 236.449 120.48 236.569 120.492 236.714L121.388 244.822C121.399 244.902 121.447 244.946 121.532 244.954C121.635 244.965 121.701 244.932 121.728 244.856L124.194 237.085C124.234 236.945 124.314 236.838 124.432 236.765C124.558 236.686 124.692 236.654 124.834 236.668L126.146 236.799C126.289 236.814 126.414 236.872 126.521 236.974C126.629 237.077 126.689 237.197 126.701 237.336C126.744 237.752 126.779 238.093 126.805 238.357C126.837 238.622 126.869 238.893 126.9 239.171C126.931 239.449 127.007 240.131 127.127 241.216C127.247 242.301 127.404 243.71 127.597 245.444C127.589 245.522 127.637 245.566 127.741 245.576C127.831 245.585 127.89 245.552 127.918 245.476L130.403 237.706C130.45 237.567 130.529 237.461 130.641 237.387C130.754 237.307 130.882 237.273 131.024 237.288L132.103 237.396C132.297 237.415 132.449 237.502 132.557 237.657C132.63 237.782 132.659 237.916 132.645 238.059C132.641 238.097 132.634 238.136 132.623 238.174L128.436 251.279C128.396 251.419 128.313 251.529 128.187 251.608C128.068 251.681 127.938 251.71 127.795 251.696L126.484 251.565C126.335 251.55 126.209 251.495 126.108 251.399C126.006 251.298 125.947 251.174 125.929 251.028L124.955 242.127L122.227 250.658C122.18 250.797 122.1 250.907 121.987 250.987C121.875 251.061 121.748 251.091 121.606 251.076L120.274 250.943C120.132 250.929 120.01 250.874 119.908 250.779C119.807 250.677 119.751 250.554 119.739 250.408L118.231 236.753ZM130.697 251.142C132.115 245.935 133.328 241.444 134.335 237.669C134.361 237.539 134.426 237.435 134.531 237.357C134.641 237.272 134.765 237.23 134.902 237.23L136.337 237.232C136.468 237.232 136.585 237.275 136.689 237.359C136.799 237.438 136.868 237.542 136.894 237.672C137.743 240.87 138.42 243.413 138.926 245.301C139.432 247.183 139.737 248.323 139.84 248.72C139.951 249.111 140.051 249.476 140.142 249.814C140.233 250.153 140.353 250.599 140.502 251.153C140.515 251.205 140.521 251.257 140.521 251.309C140.521 251.439 140.482 251.556 140.403 251.66C140.286 251.816 140.133 251.894 139.944 251.894L138.802 251.893C138.671 251.893 138.554 251.854 138.45 251.775C138.353 251.691 138.284 251.583 138.245 251.453C138.219 251.362 138.155 251.13 138.051 250.759C137.954 250.388 137.863 250.04 137.779 249.714C137.694 249.421 137.502 249.274 137.203 249.274L134 249.27C133.7 249.27 133.508 249.416 133.423 249.709C133.305 250.197 133.152 250.777 132.962 251.447C132.923 251.577 132.851 251.684 132.747 251.769C132.649 251.847 132.535 251.886 132.405 251.886L131.263 251.885C131.074 251.884 130.921 251.806 130.804 251.65C130.719 251.539 130.677 251.422 130.677 251.298C130.677 251.246 130.684 251.194 130.697 251.142ZM134.345 246.273C134.332 246.325 134.325 246.377 134.325 246.429C134.325 246.559 134.367 246.676 134.452 246.781C134.569 246.931 134.722 247.006 134.911 247.006L136.307 247.007C136.489 247.008 136.639 246.933 136.756 246.783C136.835 246.679 136.877 246.562 136.884 246.432C136.884 246.38 136.877 246.328 136.864 246.276C136.663 245.507 136.433 244.651 136.174 243.706C136.135 243.524 136.031 243.397 135.862 243.325C135.777 243.286 135.693 243.27 135.608 243.276C135.53 243.276 135.449 243.292 135.364 243.325C135.201 243.396 135.097 243.523 135.051 243.705C134.979 243.965 134.865 244.385 134.708 244.965C134.551 245.537 134.43 245.973 134.345 246.273ZM139.145 237.977C139.106 237.909 139.084 237.839 139.077 237.767C139.068 237.664 139.094 237.557 139.156 237.446C139.264 237.267 139.416 237.168 139.61 237.151L140.768 237.047C141.034 237.023 141.223 237.133 141.337 237.378L143.966 242.966C143.991 243.029 144.046 243.057 144.131 243.049C144.221 243.041 144.274 243.004 144.287 242.937L145.86 236.972C145.928 236.711 146.101 236.568 146.38 236.543L147.518 236.441C147.732 236.422 147.898 236.492 148.017 236.651C148.103 236.735 148.151 236.835 148.162 236.952C148.168 237.016 148.161 237.089 148.142 237.169L145.592 246.772L145.947 250.721C145.961 250.883 145.918 251.024 145.818 251.144C145.718 251.264 145.587 251.331 145.424 251.346L144.345 251.443C144.183 251.457 144.038 251.415 143.912 251.315C143.785 251.215 143.715 251.084 143.7 250.922L143.345 246.973L139.145 237.977ZM155.552 242.593C155.066 240.607 155.077 238.889 155.586 237.437C156.19 235.687 157.399 234.59 159.214 234.145C161.022 233.702 162.599 234.117 163.943 235.39C165.065 236.442 165.869 237.961 166.356 239.947C166.837 241.914 166.826 243.632 166.321 245.103C165.704 246.85 164.497 247.943 162.701 248.383C160.899 248.824 159.32 248.413 157.965 247.15C156.838 246.078 156.034 244.56 155.552 242.593ZM157.614 241.404C157.655 241.629 157.701 241.845 157.753 242.054C157.804 242.263 157.863 242.476 157.929 242.694C157.995 242.906 158.095 243.177 158.229 243.506C158.368 243.827 158.515 244.126 158.67 244.403C158.83 244.672 159.03 244.945 159.272 245.221C159.514 245.497 159.77 245.722 160.041 245.897C160.31 246.066 160.63 246.182 161.001 246.245C161.372 246.309 161.76 246.291 162.164 246.192C162.569 246.093 162.921 245.929 163.221 245.702C163.52 245.474 163.75 245.223 163.911 244.949C164.07 244.669 164.193 244.351 164.28 243.994C164.367 243.638 164.416 243.304 164.427 242.993C164.443 242.674 164.435 242.341 164.404 241.993C164.377 241.638 164.344 241.351 164.304 241.133C164.262 240.909 164.216 240.692 164.165 240.484C164.113 240.275 164.055 240.061 163.988 239.843C163.921 239.625 163.818 239.355 163.679 239.034C163.545 238.705 163.397 238.403 163.236 238.127C163.081 237.85 162.883 237.577 162.643 237.307C162.401 237.031 162.145 236.809 161.876 236.64C161.605 236.465 161.285 236.346 160.914 236.283C160.543 236.219 160.155 236.237 159.751 236.336C159.346 236.436 158.994 236.599 158.694 236.826C158.395 237.054 158.165 237.308 158.006 237.588C157.845 237.862 157.721 238.177 157.634 238.534C157.546 238.884 157.494 239.218 157.478 239.537C157.469 239.855 157.477 240.191 157.504 240.546C157.535 240.894 157.572 241.18 157.614 241.404ZM169.808 245.943L165.214 233.242C165.158 233.089 165.164 232.942 165.23 232.8C165.303 232.656 165.416 232.557 165.569 232.501L167.011 231.98C167.115 231.942 167.224 231.937 167.338 231.965C167.458 231.991 167.553 232.043 167.623 232.122L174.289 238.808C174.359 238.886 174.455 238.893 174.576 238.828C174.668 238.774 174.692 238.689 174.65 238.573L171.853 230.841C171.8 230.694 171.81 230.548 171.882 230.404C171.959 230.252 172.074 230.148 172.227 230.093L173.237 229.727C173.39 229.672 173.537 229.678 173.679 229.744C173.827 229.808 173.928 229.917 173.984 230.07L178.578 242.77C178.631 242.917 178.625 243.062 178.558 243.203C178.488 243.353 178.376 243.456 178.223 243.511L176.781 244.033C176.561 244.113 176.357 244.065 176.169 243.891L169.503 237.205C169.423 237.117 169.332 237.105 169.23 237.169C169.127 237.227 169.097 237.317 169.141 237.44L171.939 245.172C171.994 245.325 171.985 245.474 171.913 245.618C171.84 245.762 171.724 245.862 171.565 245.92L170.555 246.285C170.402 246.341 170.252 246.336 170.104 246.272C169.962 246.206 169.863 246.096 169.808 245.943ZM184.378 236.877L184.172 236.489C184.114 236.38 184.103 236.268 184.138 236.154C184.173 236.039 184.245 235.953 184.354 235.895L185.561 235.253C185.67 235.195 185.785 235.182 185.905 235.214C186.025 235.246 186.115 235.317 186.173 235.426L186.448 235.943C186.885 236.765 187.462 236.985 188.181 236.603C188.911 236.215 189.058 235.61 188.621 234.788C188.373 234.323 188.01 233.959 187.532 233.697C187.056 233.426 186.33 233.19 185.352 232.987C184.111 232.732 183.163 232.399 182.509 231.987C181.852 231.57 181.328 230.993 180.937 230.257C180.396 229.24 180.242 228.319 180.475 227.494C180.71 226.661 181.337 225.975 182.355 225.434C183.361 224.899 184.272 224.768 185.088 225.042C185.907 225.307 186.587 225.949 187.128 226.966C187.189 227.081 187.201 227.2 187.163 227.323C187.132 227.444 187.058 227.534 186.943 227.595L185.762 228.223C185.647 228.284 185.528 228.296 185.404 228.258C185.287 228.218 185.198 228.14 185.136 228.025L185.072 227.904C184.84 227.467 184.583 227.198 184.301 227.098C184.021 226.988 183.709 227.025 183.364 227.208C182.657 227.584 182.525 228.189 182.968 229.023C183.216 229.488 183.577 229.856 184.053 230.127C184.531 230.389 185.259 230.621 186.237 230.824C187.487 231.081 188.436 231.417 189.084 231.832C189.735 232.238 190.256 232.809 190.647 233.545C191.191 234.568 191.343 235.498 191.101 236.334C190.863 237.161 190.235 237.845 189.217 238.386C188.188 238.933 187.261 239.076 186.436 238.814C185.608 238.546 184.922 237.901 184.378 236.877ZM193.755 235.235L186.504 223.841C186.417 223.704 186.39 223.559 186.424 223.406C186.464 223.25 186.552 223.128 186.689 223.04L189.474 221.268C190.04 220.908 190.631 220.709 191.248 220.672C191.861 220.629 192.437 220.722 192.975 220.95C193.514 221.178 194.024 221.506 194.504 221.933C195.003 222.365 195.426 222.855 195.776 223.404C196.115 223.937 196.37 224.508 196.541 225.116C196.72 225.736 196.798 226.338 196.777 226.923C196.755 227.508 196.597 228.071 196.302 228.614C196.003 229.151 195.571 229.6 195.005 229.96L194.124 230.521C193.987 230.609 193.901 230.729 193.867 230.881C193.833 231.034 193.86 231.179 193.947 231.317L195.667 234.019C195.754 234.156 195.778 234.303 195.739 234.459C195.705 234.612 195.619 234.732 195.482 234.82L194.559 235.407C194.422 235.494 194.274 235.523 194.116 235.492C193.963 235.458 193.843 235.373 193.755 235.235ZM192.112 228.433C192.199 228.57 192.319 228.656 192.472 228.69C192.625 228.724 192.77 228.697 192.907 228.61L193.822 228.028C194.113 227.843 194.315 227.59 194.429 227.271C194.544 226.943 194.571 226.598 194.51 226.235C194.446 225.867 194.331 225.493 194.166 225.112C194.081 224.919 193.981 224.731 193.866 224.55C193.761 224.385 193.641 224.227 193.505 224.074C193.235 223.759 192.949 223.498 192.647 223.289C192.346 223.071 192.025 222.948 191.682 222.919C191.336 222.885 191.015 222.962 190.718 223.15L189.804 223.732C189.666 223.82 189.582 223.943 189.552 224.101C189.518 224.254 189.545 224.399 189.632 224.536L192.112 228.433ZM197.992 224.468C196.736 222.855 196.043 221.282 195.914 219.749C195.749 217.905 196.404 216.409 197.878 215.261C199.347 214.117 200.955 213.851 202.702 214.463C204.157 214.964 205.512 216.021 206.768 217.634C208.012 219.231 208.705 220.804 208.846 222.353C208.997 224.199 208.343 225.691 206.884 226.827C205.42 227.967 203.811 228.237 202.058 227.639C200.591 227.122 199.236 226.065 197.992 224.468ZM199.387 222.54C199.517 222.728 199.648 222.906 199.78 223.076C199.912 223.245 200.053 223.416 200.203 223.588C200.349 223.754 200.551 223.96 200.808 224.206C201.066 224.442 201.323 224.655 201.578 224.844C201.833 225.025 202.128 225.191 202.462 225.344C202.795 225.497 203.121 225.598 203.44 225.647C203.755 225.69 204.094 225.665 204.458 225.571C204.823 225.478 205.169 225.303 205.498 225.047C205.827 224.791 206.081 224.498 206.261 224.167C206.442 223.837 206.549 223.514 206.584 223.199C206.614 222.878 206.596 222.537 206.53 222.176C206.464 221.815 206.372 221.491 206.255 221.202C206.138 220.905 205.995 220.604 205.824 220.3C205.654 219.986 205.507 219.738 205.381 219.556C205.251 219.368 205.12 219.189 204.988 219.02C204.856 218.85 204.715 218.68 204.565 218.508C204.415 218.336 204.21 218.132 203.952 217.896C203.695 217.65 203.436 217.435 203.177 217.25C202.922 217.06 202.63 216.892 202.3 216.744C201.967 216.591 201.642 216.493 201.328 216.449C201.009 216.4 200.668 216.423 200.303 216.516C199.939 216.61 199.593 216.785 199.264 217.041C198.935 217.297 198.681 217.59 198.5 217.92C198.32 218.25 198.215 218.576 198.184 218.897C198.149 219.213 198.165 219.551 198.232 219.912C198.294 220.268 198.384 220.594 198.5 220.892C198.621 221.185 198.766 221.488 198.936 221.802C199.107 222.106 199.257 222.352 199.387 222.54ZM203.096 213.281L202.34 212.478C202.228 212.359 202.174 212.222 202.179 212.065C202.189 211.904 202.252 211.768 202.371 211.656L207.525 206.802C207.648 206.686 207.788 206.63 207.944 206.635C208.105 206.635 208.242 206.694 208.353 206.813L209.11 207.616C209.222 207.735 209.273 207.874 209.263 208.035C209.259 208.192 209.195 208.328 209.071 208.444L207.742 209.696C207.624 209.808 207.564 209.944 207.564 210.105C207.559 210.262 207.613 210.399 207.724 210.518L215.432 218.7C215.543 218.818 215.594 218.958 215.585 219.119C215.58 219.275 215.516 219.411 215.393 219.527L214.604 220.271C214.485 220.382 214.348 220.436 214.191 220.431C214.035 220.426 213.901 220.365 213.789 220.246L206.082 212.064C205.971 211.946 205.834 211.887 205.673 211.886C205.512 211.877 205.373 211.928 205.254 212.04L203.918 213.298C203.799 213.41 203.659 213.466 203.498 213.466C203.342 213.461 203.208 213.399 203.096 213.281ZM218.997 215.264L209.193 205.975C209.075 205.864 209.014 205.729 209.009 205.573C209.01 205.412 209.066 205.272 209.178 205.154L209.93 204.36C210.042 204.242 210.176 204.181 210.333 204.176C210.493 204.167 210.633 204.219 210.751 204.331L220.555 213.62C220.674 213.732 220.732 213.868 220.732 214.03C220.736 214.186 220.683 214.323 220.571 214.441L219.818 215.235C219.706 215.354 219.57 215.417 219.409 215.426C219.253 215.43 219.115 215.376 218.997 215.264ZM221.853 212.159L211.47 203.521C211.345 203.417 211.275 203.287 211.261 203.132C211.251 202.971 211.298 202.828 211.402 202.703L215.261 198.063C215.365 197.938 215.495 197.868 215.651 197.854C215.811 197.835 215.954 197.877 216.079 197.981L216.927 198.687C217.053 198.791 217.12 198.923 217.13 199.084C217.145 199.24 217.1 199.381 216.996 199.506L214.579 202.411C214.474 202.536 214.432 202.679 214.451 202.839C214.466 202.995 214.535 203.125 214.661 203.229L215.584 203.997C215.709 204.101 215.85 204.146 216.005 204.132C216.161 204.117 216.291 204.048 216.395 203.922L217.994 202.001C218.102 201.87 218.237 201.796 218.397 201.776C218.557 201.757 218.699 201.799 218.824 201.904L219.658 202.597C219.783 202.701 219.853 202.835 219.868 203.001C219.883 203.166 219.837 203.313 219.728 203.443L218.13 205.365C218.025 205.49 217.983 205.633 218.002 205.793C218.017 205.949 218.086 206.079 218.212 206.183L223.302 210.417C223.427 210.521 223.494 210.654 223.504 210.815C223.519 210.971 223.474 211.111 223.37 211.236L222.67 212.077C222.566 212.202 222.434 212.274 222.274 212.294C222.118 212.308 221.978 212.263 221.853 212.159ZM216.776 197.4C216.699 197.386 216.631 197.358 216.572 197.317C216.487 197.258 216.422 197.169 216.378 197.05C216.31 196.852 216.332 196.673 216.444 196.513L217.11 195.56C217.262 195.341 217.469 195.267 217.729 195.338L223.698 196.925C223.762 196.946 223.819 196.922 223.867 196.852C223.92 196.778 223.925 196.714 223.883 196.66L220.331 191.616C220.175 191.396 220.177 191.171 220.338 190.942L220.992 190.005C221.116 189.829 221.276 189.747 221.475 189.759C221.594 189.747 221.702 189.774 221.798 189.842C221.851 189.879 221.903 189.931 221.952 189.997L227.656 198.131L230.906 200.402C231.039 200.496 231.12 200.619 231.147 200.773C231.174 200.928 231.141 201.071 231.048 201.205L230.427 202.093C230.334 202.227 230.208 202.31 230.051 202.342C229.893 202.375 229.747 202.345 229.614 202.251L226.364 199.98L216.776 197.4Z" fill="#D4C0C0"/>
<circle cx="134.5" cy="134.5" r="5" fill="#313131" stroke="#161515"/>
</svg>
